<svg width="24" height="24" viewBox="0 0 24 24" fill="none" xmlns="http://www.w3.org/2000/svg">
<path d="M4.27334 9.24995C3.70684 9.24995 3.26684 8.73845 3.36675 8.18111C3.69584 6.34685 4.60976 4.64185 5.98385 3.35393C7.7576 1.69017 10.074 0.860584 12.516 1.01917C17.1186 1.31617 20.7138 5.32293 20.646 10.1098C20.6093 12.693 18.4561 14.7509 15.872 14.7509H13.1843C12.8543 15.0681 12.4088 15.2651 11.9156 15.2651C10.9027 15.2651 10.0823 14.4447 10.0823 13.4318C10.0823 12.4189 10.9027 11.5985 11.9156 11.5985C12.748 11.5985 13.4428 12.1567 13.6665 12.9175H15.872C17.4633 12.9175 18.7952 11.6498 18.8126 10.0594C18.8548 6.25885 16.0214 3.08443 12.3978 2.84976C10.4737 2.73059 8.63852 3.37959 7.23693 4.69318C6.12868 5.73177 5.41459 7.06186 5.16434 8.52303C5.09101 8.9502 4.70601 9.25178 4.27334 9.25178V9.24995ZM11.9385 16.5833C8.55144 16.5833 5.62085 18.6843 4.64642 21.8102C4.55934 22.0888 4.60976 22.3922 4.78301 22.6269C4.95626 22.8616 5.23034 23 5.52184 23H18.3552C18.6467 23 18.9208 22.8616 19.0941 22.6269C19.2673 22.3922 19.3177 22.0888 19.2306 21.8102C18.2562 18.6843 15.3256 16.5833 11.9385 16.5833ZM14.628 11.0833H16.7859C16.9096 10.646 16.9802 10.1859 16.9802 9.70828C16.9802 6.92344 14.7234 4.6666 11.9385 4.6666C9.15369 4.6666 6.89685 6.92344 6.89685 9.70828C6.89685 11.075 7.44319 12.3125 8.32594 13.221C8.43686 11.3271 9.99336 9.82103 11.9156 9.82103C13.0074 9.82103 13.9699 10.317 14.629 11.0833H14.628Z" fill="#0A0A0A"/>
</svg>
