<svg width="19" height="19" viewBox="0 0 19 19" fill="none" xmlns="http://www.w3.org/2000/svg">
<path d="M14.2598 14.29C14.6126 13.9398 15.1785 13.9397 15.5312 14.29L17.8633 16.1729H17.9033C18.3751 16.6497 18.3751 17.4225 17.9033 17.8994C17.4315 18.3763 16.6671 18.3763 16.1953 17.8994L14.2598 15.6816C14.0769 15.4974 13.9737 15.2473 13.9736 14.9863C13.9736 14.7253 14.0768 14.4743 14.2598 14.29ZM7.83008 0C9.9068 0 11.8987 0.834098 13.3672 2.31836C14.8354 3.8025 15.66 5.81524 15.6602 7.91406C15.6602 12.2851 12.1546 15.8291 7.83008 15.8291C3.50563 15.829 0 12.2851 0 7.91406C0.00024662 3.54327 3.50578 0.000109142 7.83008 0Z" fill="#0A0A0A"/>
</svg>
