<svg width="28" height="28" viewBox="0 0 28 28" fill="none" xmlns="http://www.w3.org/2000/svg">
<path d="M24.472 14H18.228C17.5154 14 16.8187 14.2111 16.226 14.6067L13.9405 16.1303C13.7488 16.2582 13.5235 16.3264 13.293 16.3263H1.16667C0.857247 16.3263 0.560501 16.4493 0.341709 16.668C0.122916 16.8868 0 17.1836 0 17.493L0 26.8263C0 27.1358 0.122916 27.4325 0.341709 27.6513C0.560501 27.8701 0.857247 27.993 1.16667 27.993H14.6265C17.5378 27.9876 20.3746 27.0725 22.7402 25.3756C25.1058 23.6787 26.882 21.2849 27.8203 18.529C27.9857 18.0052 28.0247 17.4496 27.9342 16.9078C27.8437 16.366 27.6263 15.8533 27.2998 15.4116C26.9732 14.9699 26.5468 14.6118 26.0553 14.3664C25.5638 14.1211 25.0213 13.9955 24.472 14ZM4.66667 23.3333C4.43592 23.3333 4.21036 23.2649 4.0185 23.1367C3.82664 23.0085 3.67711 22.8263 3.58881 22.6131C3.5005 22.4 3.4774 22.1654 3.52242 21.9391C3.56743 21.7128 3.67855 21.5049 3.84171 21.3417C4.00487 21.1785 4.21275 21.0674 4.43906 21.0224C4.66537 20.9774 4.89995 21.0005 5.11313 21.0888C5.32631 21.1771 5.50852 21.3266 5.63671 21.5185C5.76491 21.7104 5.83333 21.9359 5.83333 22.1667C5.83333 22.4761 5.71042 22.7728 5.49162 22.9916C5.27283 23.2104 4.97609 23.3333 4.66667 23.3333ZM9.33333 23.3333C9.10259 23.3333 8.87703 23.2649 8.68517 23.1367C8.49331 23.0085 8.34378 22.8263 8.25547 22.6131C8.16717 22.4 8.14407 22.1654 8.18908 21.9391C8.2341 21.7128 8.34521 21.5049 8.50838 21.3417C8.67154 21.1785 8.87942 21.0674 9.10573 21.0224C9.33204 20.9774 9.56662 21.0005 9.7798 21.0888C9.99298 21.1771 10.1752 21.3266 10.3034 21.5185C10.4316 21.7104 10.5 21.9359 10.5 22.1667C10.5 22.4761 10.3771 22.7728 10.1583 22.9916C9.9395 23.2104 9.64275 23.3333 9.33333 23.3333ZM14 23.3333C13.7693 23.3333 13.5437 23.2649 13.3518 23.1367C13.16 23.0085 13.0104 22.8263 12.9221 22.6131C12.8338 22.4 12.8107 22.1654 12.8558 21.9391C12.9008 21.7128 13.0119 21.5049 13.175 21.3417C13.3382 21.1785 13.5461 21.0674 13.7724 21.0224C13.9987 20.9774 14.2333 21.0005 14.4465 21.0888C14.6596 21.1771 14.8419 21.3266 14.97 21.5185C15.0982 21.7104 15.1667 21.9359 15.1667 22.1667C15.1667 22.4761 15.0437 22.7728 14.825 22.9916C14.6062 23.2104 14.3094 23.3333 14 23.3333ZM1.16667 14C0.768311 14.0038 0.373608 14.0764 0 14.2147L0 10.5H11.6667C11.9761 10.5 12.2728 10.3771 12.4916 10.1583C12.7104 9.9395 12.8333 9.64275 12.8333 9.33333C12.8333 9.02391 12.7104 8.72717 12.4916 8.50838C12.2728 8.28958 11.9761 8.16667 11.6667 8.16667H0V5.67117C0 5.36175 0.122916 5.065 0.341709 4.84621C0.560501 4.62742 0.857247 4.5045 1.16667 4.5045H3.95733L3.58283 3.0835C3.48696 2.71992 3.47581 2.33918 3.55024 1.97061C3.62468 1.60204 3.78271 1.25547 4.01218 0.957589C4.24165 0.659711 4.53642 0.418474 4.8738 0.252456C5.21117 0.0864381 5.58215 6.88749e-05 5.95817 0C6.50078 4.0202e-05 7.02813 0.179614 7.458 0.510725C7.88788 0.841836 8.19612 1.30588 8.33467 1.8305L9.03467 4.5045H11.6667C13.019 4.50778 14.3288 4.97708 15.3755 5.83333C17.3508 7.5419 19.0925 9.50321 20.5555 11.6667H18.2525C17.0838 11.6709 15.9409 12.0111 14.9602 12.6467L12.9407 14H1.16667Z" fill="white"/>
</svg>
