<svg width="20" height="20" viewBox="0 0 20 20" fill="none" xmlns="http://www.w3.org/2000/svg">
<path fill-rule="evenodd" clip-rule="evenodd" d="M6.39102 1.6665H13.616C16.441 1.6665 18.3327 3.64984 18.3327 6.59984V13.409C18.3327 16.3498 16.441 18.3332 13.616 18.3332H6.39102C3.56602 18.3332 1.66602 16.3498 1.66602 13.409V6.59984C1.66602 3.64984 3.56602 1.6665 6.39102 1.6665ZM9.52435 12.4915L13.4827 8.53317C13.766 8.24984 13.766 7.7915 13.4827 7.49984C13.1993 7.2165 12.7327 7.2165 12.4493 7.49984L9.00768 10.9415L7.54935 9.48317C7.26602 9.19984 6.79935 9.19984 6.51602 9.48317C6.23268 9.7665 6.23268 10.2248 6.51602 10.5165L8.49935 12.4915C8.64102 12.6332 8.82435 12.6998 9.00768 12.6998C9.19935 12.6998 9.38268 12.6332 9.52435 12.4915Z" fill="#012C18"/>
</svg>
